<?xml version="1.0" standalone="no"?>
<!DOCTYPE svg PUBLIC "-//W3C//DTD SVG 20010904//EN"
 "http://www.w3.org/TR/2001/REC-SVG-20010904/DTD/svg10.dtd">
<svg version="1.0" xmlns="http://www.w3.org/2000/svg"
 width="668.000000pt" height="1280.000000pt" viewBox="0 0 668.000000 1280.000000"
 preserveAspectRatio="xMidYMid meet">
<metadata>
Created by potrace 1.15, written by Peter Selinger 2001-2017
</metadata>
<g transform="translate(0.000000,1280.000000) scale(0.100000,-0.100000)"
fill="#000000" stroke="none">
<path d="M2180 12795 c-8 -2 -82 -9 -165 -15 -255 -19 -380 -58 -530 -165 -69
-49 -177 -159 -224 -228 -74 -109 -131 -277 -131 -388 l0 -57 -73 -40 c-254
-140 -364 -319 -299 -490 71 -187 300 -335 674 -436 373 -102 900 -114 1318
-30 313 62 545 163 691 301 180 170 180 359 0 525 -37 35 -98 80 -135 102
l-66 39 0 47 c0 127 -54 319 -126 448 -64 114 -126 166 -311 259 -227 114
-263 125 -453 129 -85 1 -162 1 -170 -1z"/>
<path d="M5486 12076 c-20 -24 -36 -48 -36 -52 0 -4 39 -45 88 -90 l87 -83 42
47 c24 26 43 52 43 58 0 13 -163 164 -178 164 -5 0 -26 -20 -46 -44z"/>
<path d="M5165 11940 c-80 -97 -139 -177 -138 -187 4 -33 632 -1508 642 -1508
9 0 696 600 721 630 10 12 -83 121 -531 625 -298 335 -545 610 -548 610 -3 0
-69 -77 -146 -170z"/>
<path d="M3774 10053 c-693 -808 -1826 -2127 -2518 -2931 l-1257 -1464 65 -68
66 -68 358 412 c197 226 1324 1522 2506 2880 l2149 2468 -48 119 c-26 65 -50
119 -53 119 -4 0 -574 -660 -1268 -1467z"/>
<path d="M2805 10914 c-190 -53 -468 -79 -760 -71 -223 6 -337 19 -524 57 -57
12 -105 19 -108 17 -9 -10 17 -185 38 -254 59 -195 205 -366 384 -453 108 -51
198 -72 315 -71 301 1 557 181 675 476 45 114 73 317 43 314 -7 -1 -35 -8 -63
-15z"/>
<path d="M6105 10459 c-209 -183 -382 -336 -383 -341 -2 -5 11 -45 28 -89 29
-72 34 -78 49 -66 9 8 187 159 396 337 209 178 388 330 398 339 16 16 14 20
-45 85 l-63 67 -380 -332z"/>
<path d="M1260 10001 c-159 -99 -227 -147 -232 -163 -4 -13 -16 -167 -27 -343
-12 -176 -41 -619 -66 -985 -62 -930 -106 -1623 -101 -1627 13 -13 701 767
1396 1582 211 248 506 591 654 764 149 172 279 323 288 335 16 21 16 33 2 172
-8 82 -18 155 -22 162 -4 7 -116 60 -250 117 l-243 103 -71 -48 c-270 -187
-618 -184 -883 5 -69 50 -79 54 -147 59 l-73 6 -225 -139z"/>
<path d="M3327 9843 c14 -89 13 -88 64 -34 l46 48 -49 12 c-68 15 -67 16 -61
-26z"/>
<path d="M720 9717 l-184 -84 -239 -994 c-236 -979 -239 -995 -229 -1054 6
-33 46 -204 90 -380 44 -176 106 -429 138 -562 33 -134 62 -242 66 -240 7 2
272 323 334 403 l24 31 -90 484 -90 484 79 420 c44 231 128 672 186 980 58
308 107 568 109 578 2 9 1 17 -2 17 -4 0 -90 -38 -192 -83z"/>
<path d="M3604 9387 c-83 -106 -156 -201 -163 -212 -13 -21 -24 34 255 -1278
46 -219 84 -400 84 -402 0 -6 26 -16 -563 214 -258 101 -470 181 -472 179 -17
-18 -345 -551 -342 -555 3 -2 266 -51 584 -109 318 -57 722 -130 898 -162 274
-49 320 -55 323 -42 2 13 -92 554 -278 1595 -22 121 -69 386 -105 589 -36 204
-67 371 -68 372 -1 2 -70 -84 -153 -189z"/>
<path d="M2509 8112 c-405 -477 -944 -1108 -1197 -1403 l-461 -537 6 -87 6
-86 156 5 c86 4 365 11 621 16 256 6 638 15 850 20 212 5 542 13 733 16 l348
7 -6 71 c-4 39 -28 262 -54 496 l-46 425 -60 12 c-33 6 -305 55 -605 109 -300
53 -549 101 -554 105 -6 5 438 683 489 747 3 4 154 -64 330 -148 178 -86 306
-142 312 -137 2 3 -17 204 -42 448 -25 244 -53 522 -62 617 -9 94 -19 172 -22
172 -4 0 -337 -391 -742 -868z"/>
<path d="M3080 5750 c-245 -4 -825 -13 -1290 -19 -465 -7 -860 -14 -878 -17
-29 -5 -32 -8 -32 -42 0 -21 43 -645 95 -1387 53 -743 98 -1408 101 -1480 4
-87 -2 -266 -20 -545 -14 -228 -41 -687 -61 -1020 l-36 -605 -26 -24 c-118
-105 -593 -555 -589 -558 2 -2 269 10 592 26 842 44 998 53 1003 57 2 2 -5
101 -16 220 l-21 216 20 1056 19 1057 176 1015 c97 558 179 1018 182 1022 3 4
88 -431 188 -965 179 -958 185 -988 438 -2078 l257 -1107 -156 -228 c-86 -125
-155 -228 -153 -230 5 -5 1278 -26 1283 -21 3 3 -74 130 -170 284 l-175 279
-46 759 c-25 418 -57 947 -70 1175 -14 228 -32 522 -40 653 -12 188 -15 479
-15 1378 l0 1139 -57 -2 c-32 -1 -258 -5 -503 -8z"/>
<path d="M4812 4475 c-15 -31 -15 -55 -2 -55 13 0 30 34 30 59 0 29 -14 26
-28 -4z"/>
<path d="M4748 4440 c-19 -27 -24 -60 -8 -60 14 0 32 38 28 63 -3 22 -3 22
-20 -3z"/>
<path d="M5100 4435 c0 -8 5 -15 10 -15 6 0 10 7 10 15 0 8 -4 15 -10 15 -5 0
-10 -7 -10 -15z"/>
<path d="M6040 4431 c-5 -11 -10 -28 -10 -39 0 -11 -7 -33 -15 -48 -8 -16 -15
-35 -15 -41 0 -21 20 -14 29 10 39 105 47 137 33 137 -6 0 -16 -9 -22 -19z"/>
<path d="M4779 4383 c-5 -14 -7 -34 -4 -42 6 -14 8 -13 21 3 16 23 19 66 4 66
-6 0 -15 -12 -21 -27z"/>
<path d="M5978 4390 c-19 -27 -24 -60 -8 -60 14 0 32 38 28 63 -3 22 -3 22
-20 -3z"/>
<path d="M6330 4385 c0 -8 5 -15 10 -15 6 0 10 7 10 15 0 8 -4 15 -10 15 -5 0
-10 -7 -10 -15z"/>
<path d="M4813 4349 c-6 -8 -14 -26 -18 -42 -6 -21 -4 -27 9 -27 16 0 30 36
24 66 -2 14 -5 15 -15 3z"/>
<path d="M4746 4343 c-3 -3 -6 -25 -6 -47 1 -38 2 -40 15 -22 23 31 15 93 -9
69z"/>
<path d="M4700 4315 c-12 -32 -10 -61 5 -58 16 3 30 62 17 75 -8 8 -14 4 -22
-17z"/>
<path d="M6030 4274 c-7 -19 -9 -38 -5 -42 10 -10 35 29 35 55 0 35 -17 28
-30 -13z"/>
<path d="M5976 4293 c-3 -3 -6 -16 -6 -27 -1 -20 -2 -19 -14 3 -13 24 -14 24
-25 3 -16 -30 -14 -62 4 -62 8 0 15 7 15 15 0 18 16 20 23 3 8 -18 27 10 27
39 0 23 -13 37 -24 26z"/>
<path d="M4776 4244 c-3 -9 -6 -27 -6 -41 0 -39 25 -22 28 20 3 37 -11 50 -22
21z"/>
<path d="M4724 4215 c-7 -30 2 -59 16 -50 13 8 13 75 0 75 -5 0 -12 -11 -16
-25z"/>
<path d="M4664 4196 c-8 -33 3 -63 17 -49 14 14 16 65 2 70 -7 2 -15 -7 -19
-21z"/>
<path d="M6007 4203 c-4 -3 -7 -22 -7 -40 0 -47 24 -38 28 10 3 34 -5 46 -21
30z"/>
<path d="M5954 4165 c-7 -30 2 -59 16 -50 13 8 13 75 0 75 -5 0 -12 -11 -16
-25z"/>
<path d="M5901 4162 c-13 -25 -11 -62 3 -65 13 -3 24 44 16 68 -7 19 -7 19
-19 -3z"/>
<path d="M4751 4141 c-6 -11 -11 -27 -11 -35 0 -9 -4 -16 -9 -16 -15 0 -33
-62 -21 -74 13 -13 30 9 30 37 0 9 9 26 20 37 21 21 27 55 11 65 -6 3 -15 -3
-20 -14z"/>
<path d="M4696 4134 c-9 -24 -7 -64 4 -64 10 0 30 60 23 73 -7 12 -21 8 -27
-9z"/>
<path d="M4465 4101 c-3 -5 -1 -12 5 -16 12 -7 30 2 30 16 0 12 -27 12 -35 0z"/>
<path d="M4651 4092 c-15 -28 -14 -65 1 -60 17 6 32 58 20 70 -7 7 -14 4 -21
-10z"/>
<path d="M5932 4093 c-15 -26 -16 -63 -2 -63 15 0 22 23 18 57 -3 28 -3 28
-16 6z"/>
<path d="M5981 4092 c-6 -11 -11 -27 -11 -35 0 -8 -6 -17 -14 -20 -8 -3 -17
-19 -21 -35 -3 -17 -13 -33 -21 -36 -10 -4 -14 -16 -12 -38 4 -43 22 -43 26 0
2 18 9 32 17 32 14 0 25 21 25 50 0 10 6 20 14 23 7 3 17 18 20 33 9 35 -8 54
-23 26z"/>
<path d="M5693 4048 c2 -7 10 -13 17 -13 7 0 15 6 18 13 2 7 -5 12 -18 12 -13
0 -20 -5 -17 -12z"/>
<path d="M5876 4044 c-10 -27 -7 -66 6 -62 13 5 30 57 22 70 -8 13 -21 9 -28
-8z"/>
<path d="M4674 3995 c-7 -30 2 -59 16 -50 13 8 13 75 0 75 -5 0 -12 -11 -16
-25z"/>
<path d="M4720 3950 c0 -43 14 -54 24 -17 10 37 7 57 -9 57 -11 0 -15 -11 -15
-40z"/>
<path d="M4624 3946 c-8 -21 -1 -61 11 -61 6 0 11 17 13 38 3 37 -13 52 -24
23z"/>
<path d="M5957 3943 c-11 -20 -15 -60 -8 -72 7 -11 11 -9 20 7 6 11 11 30 11
41 0 21 -15 37 -23 24z"/>
<path d="M4676 3914 c-9 -23 -7 -62 3 -68 11 -7 21 17 21 49 0 29 -16 41 -24
19z"/>
<path d="M5856 3904 c-9 -23 -7 -62 3 -68 11 -7 21 18 21 55 0 31 -14 39 -24
13z"/>
<path d="M4267 3863 c-3 -27 -9 -101 -13 -165 l-7 -117 -82 85 c-99 100 -136
114 -44 16 35 -37 77 -87 93 -110 l28 -41 -12 -293 c-17 -383 -17 -1355 -1
-1548 46 -546 137 -960 276 -1266 30 -67 33 -81 40 -223 4 -83 11 -151 16
-151 5 0 9 67 9 149 l0 148 55 116 c102 214 164 430 187 653 19 188 16 843 -5
1028 -9 82 -18 151 -20 152 -1 1 -3 -156 -4 -349 -3 -587 -36 -870 -161 -1372
l-47 -190 -6 90 c-4 50 -7 387 -8 750 -1 765 -7 716 104 940 128 260 279 461
553 735 190 189 172 184 -49 -14 -262 -236 -429 -444 -510 -635 -16 -36 -29
-61 -29 -55 0 15 65 295 106 459 21 82 49 162 66 193 29 51 32 72 9 57 -44
-27 -82 -149 -192 -625 l-59 -255 5 430 c8 654 39 1185 80 1348 5 20 4 27 -8
27 -29 0 -70 -374 -83 -768 -4 -106 -9 -191 -11 -188 -2 2 -19 65 -38 140 -53
207 -121 372 -198 479 l-34 48 5 185 c5 180 0 232 -11 137z m62 -476 c54 -99
122 -262 166 -398 l37 -114 2 -1225 1 -1225 -58 258 c-122 549 -159 846 -187
1482 -16 385 -25 1309 -12 1301 6 -3 29 -39 51 -79z"/>
<path d="M5497 3828 c-4 -29 -9 -106 -13 -170 -4 -65 -8 -118 -10 -118 -1 0
-39 36 -83 80 -97 97 -129 107 -40 12 35 -37 77 -86 92 -109 l29 -42 -11 -258
c-18 -442 -24 -1049 -12 -1348 25 -636 121 -1139 287 -1504 26 -56 34 -87 34
-131 0 -99 13 -240 21 -240 5 0 9 68 9 151 l0 150 46 97 c89 187 147 364 178
542 39 228 45 836 12 1153 -8 77 -16 140 -18 142 -2 2 -4 -153 -5 -343 -4
-581 -35 -851 -156 -1337 l-52 -210 -6 60 c-4 33 -7 370 -8 749 l-1 690 25 83
c34 110 77 204 157 338 129 216 280 399 529 640 79 76 119 120 89 96 -189
-147 -462 -418 -565 -562 -33 -46 -84 -130 -112 -188 -29 -57 -53 -102 -53
-98 0 13 92 409 116 497 14 52 39 119 55 147 33 61 34 63 15 63 -25 0 -74
-118 -111 -265 -19 -77 -60 -248 -89 -380 l-55 -240 0 260 c-2 560 36 1269 78
1490 9 46 1 80 -13 57 -23 -37 -62 -446 -72 -761 -4 -110 -10 -198 -14 -196
-4 2 -6 -550 -6 -1226 1 -677 -2 -1216 -6 -1197 -4 18 -29 134 -57 258 -107
478 -142 728 -171 1235 -25 434 -40 1532 -21 1521 31 -19 146 -269 208 -451
48 -143 49 -112 1 60 -50 180 -107 312 -180 416 l-39 57 7 191 c7 186 3 245
-9 139z"/>
<path d="M5907 3874 c-4 -4 -7 -23 -7 -41 0 -42 23 -41 28 1 4 29 -9 52 -21
40z"/>
<path d="M5350 3520 c0 -5 5 -10 10 -10 6 0 10 5 10 10 0 6 -4 10 -10 10 -5 0
-10 -4 -10 -10z"/>
<path d="M6580 3470 c0 -5 5 -10 10 -10 6 0 10 5 10 10 0 6 -4 10 -10 10 -5 0
-10 -4 -10 -10z"/>
<path d="M5405 3420 c-4 -6 -3 -16 3 -22 6 -6 12 -6 17 2 4 6 3 16 -3 22 -6 6
-12 6 -17 -2z"/>
<path d="M6630 3366 c0 -9 7 -16 16 -16 17 0 14 22 -4 28 -7 2 -12 -3 -12 -12z"/>
<path d="M5103 3297 c-10 -12 -35 -35 -55 -51 -21 -16 -38 -36 -38 -45 1 -13
4 -11 19 7 11 12 23 22 27 22 8 0 84 78 84 86 0 12 -21 1 -37 -19z"/>
<path d="M5050 3295 c-7 -9 -10 -18 -7 -22 8 -7 37 15 37 28 0 14 -16 11 -30
-6z"/>
<path d="M6312 3230 c-18 -22 -39 -40 -46 -40 -14 0 -26 -21 -26 -43 1 -7 8
-3 18 8 9 12 25 24 35 28 9 3 20 14 24 24 4 9 18 27 32 40 18 15 21 22 11 23
-8 0 -30 -18 -48 -40z"/>
<path d="M6270 3240 c-13 -24 2 -27 24 -4 20 19 20 24 1 24 -8 0 -19 -9 -25
-20z"/>
<path d="M4992 3238 c-14 -14 -16 -38 -3 -38 10 0 26 39 19 46 -2 2 -10 -2
-16 -8z"/>
<path d="M5062 3218 c-7 -7 -12 -19 -12 -27 0 -11 4 -10 20 4 21 19 26 35 12
35 -4 0 -13 -5 -20 -12z"/>
<path d="M6222 3188 c-6 -6 -12 -19 -12 -27 0 -13 2 -13 16 1 9 9 15 21 13 27
-3 9 -8 8 -17 -1z"/>
<path d="M4937 3173 c-4 -3 -7 -16 -7 -27 1 -21 1 -21 15 -2 8 11 15 23 15 28
0 10 -14 11 -23 1z"/>
<path d="M4982 3163 c-18 -32 -16 -51 4 -31 9 8 14 24 12 34 -4 18 -5 17 -16
-3z"/>
<path d="M5021 3167 c-7 -9 -11 -24 -9 -34 3 -16 5 -15 17 5 15 29 10 50 -8
29z"/>
<path d="M6292 3168 c-7 -7 -12 -19 -12 -27 0 -11 4 -10 20 4 21 19 26 35 12
35 -4 0 -13 -5 -20 -12z"/>
<path d="M4937 3112 c-10 -11 -15 -26 -11 -36 5 -12 1 -19 -13 -22 -21 -6 -48
-42 -38 -52 4 -4 12 1 19 11 7 9 18 17 25 17 6 0 16 9 23 20 7 11 18 20 25 20
7 0 17 9 23 20 8 16 8 20 -4 20 -7 0 -16 -7 -20 -15 -3 -8 -11 -15 -17 -15 -8
0 -8 4 1 15 19 23 7 39 -13 17z"/>
<path d="M6160 3111 c-6 -13 -6 -22 -1 -26 9 -5 31 24 31 39 0 14 -20 4 -30
-13z"/>
<path d="M6212 3118 c-14 -14 -16 -38 -3 -38 10 0 26 39 19 46 -2 2 -10 -2
-16 -8z"/>
<path d="M6253 3118 c-21 -28 -24 -38 -9 -38 8 0 18 9 21 21 8 25 2 34 -12 17z"/>
<path d="M4892 3098 c-14 -14 -16 -42 -2 -33 14 9 32 45 22 45 -4 0 -13 -5
-20 -12z"/>
<path d="M6160 3060 c-6 -10 -10 -23 -9 -27 4 -21 -2 -33 -16 -33 -16 0 -40
-38 -30 -48 4 -4 12 1 19 11 7 9 18 17 24 17 6 0 16 9 22 20 6 11 16 20 23 20
17 0 39 37 27 45 -5 3 -15 -3 -22 -15 -16 -26 -32 -26 -18 -1 13 24 13 31 0
31 -5 0 -14 -9 -20 -20z"/>
<path d="M6116 3044 c-15 -39 4 -42 24 -3 8 15 7 19 -4 19 -7 0 -17 -7 -20
-16z"/>
<path d="M4830 2999 c-7 -11 -9 -24 -5 -27 7 -7 35 25 35 40 0 16 -19 8 -30
-13z"/>
<path d="M4907 3000 c-9 -13 -14 -27 -11 -32 8 -12 37 29 32 44 -3 7 -11 2
-21 -12z"/>
<path d="M4850 2959 c-7 -11 -9 -24 -5 -27 7 -7 35 25 35 40 0 16 -19 8 -30
-13z"/>
<path d="M6062 2958 c-14 -14 -16 -42 -2 -33 14 9 32 45 22 45 -4 0 -13 -5
-20 -12z"/>
<path d="M6137 2950 c-9 -13 -14 -26 -12 -29 9 -8 38 26 33 40 -3 8 -10 5 -21
-11z"/>
<path d="M6082 2918 c-7 -7 -12 -19 -12 -27 0 -11 4 -10 20 4 21 19 26 35 12
35 -4 0 -13 -5 -20 -12z"/>
</g>
</svg>
