<?xml version="1.0" encoding="UTF-8" standalone="no"?>
<!DOCTYPE svg PUBLIC "-//W3C//DTD SVG 1.1//EN" "http://www.w3.org/Graphics/SVG/1.1/DTD/svg11.dtd">
<svg width="100%" height="100%" viewBox="0 0 1041 675" version="1.1" xmlns="http://www.w3.org/2000/svg" xmlns:xlink="http://www.w3.org/1999/xlink" xml:space="preserve" xmlns:serif="http://www.serif.com/" style="fill-rule:evenodd;clip-rule:evenodd;stroke-linejoin:round;stroke-miterlimit:1.41421;">
    <g transform="matrix(1,0,0,1,-66.4004,-156.5)">
        <g>
            <path id="path2" d="M508.3,799.3C508.3,804.5 502.6,804.9 491.1,804.9L482.1,804.9C475.2,804.9 469.1,804.9 466.7,804.7C464.9,804.3 464.6,799.1 464.6,786.6L464.6,779.3C464.6,766.8 464.8,752.4 464.9,742.9L464.9,730.2C464.9,727 464.8,722.2 464.8,717.3C464.8,707 465.1,695.1 466.1,693.4C466.7,692.5 470.7,692.3 475.7,692.3C484.5,692.3 497.3,692.9 499.7,693.2L500.9,693.2C501.5,693.2 502.3,693 503,693C505.1,693 507.4,693.6 507.4,696.4C507.4,700.3 504.7,701.4 498.3,701.4C491.9,701.4 482.9,700.3 480,700.3C479.2,700.3 479.1,701.6 479.1,709.1C479.1,721.8 479.3,737.5 480.2,737.5C491.7,737.5 498.6,736.6 500.9,736.6C503.4,736.6 503.6,737.7 503.7,742L503.7,743.1C503.7,745.7 498.9,746.3 494,746.3C484.1,746.3 484,745.7 481.1,745.7C479.9,745.7 479.1,746.1 478.9,748.7L478.9,748.5C478.6,752.2 478,768.1 478,780.6L478,788.1C478,794.6 478.3,795.6 480.7,795.6C486.1,795.6 497.3,795 502.7,795L505.5,795C507.5,795.4 508.3,797.5 508.3,799.3ZM450.7,692.2C449.8,692.2 441.9,693.1 441.9,696.1L436.5,711C433.8,719.2 425.7,744.8 424.7,744.8C422.2,744.8 409.4,694.4 408.7,693.1C407.8,692.9 406.2,692.5 405,692.5C401.5,692.5 396.8,693.8 396.5,697C396.2,719.2 396,740.5 396,762.7C396,765.9 395.4,778.2 395.4,788.5C395.4,804.9 396.3,805.1 401.1,805.1C407.8,805.1 408.4,794.8 408.4,778.8L408.4,726L410.5,730.5C412.4,733.3 418.7,763.2 423.4,763.2C429.7,763.2 433.7,736.1 440.9,722.5C441,724.9 441,726.8 441,729C441,754 440.2,750.5 440.2,788.4C440.2,804.1 440.5,804.8 446,804.8C453,804.8 452.9,796.2 453,785L453.5,739.8C453.6,727.1 453.8,714.4 454.1,701.5C454.1,694.4 454,692.2 450.7,692.2ZM383.5,718.9C384.3,727.9 385,737.2 385,746.5C385,761.4 383.4,775.6 378.9,788.5C374.9,800.1 364.8,804.9 359,804.9C353.1,804.9 348.1,801.2 343.7,793.3L343.7,792.9C338.5,780.2 337.1,766.2 337.1,752.4C337.1,741.4 338.7,733.7 340.9,724.6L341.4,722.4C344.5,708.6 352.8,692.7 366.1,692.7C376.7,692.7 382.3,704.5 383.6,718.8L383.6,718.9L383.5,718.9ZM378.1,745C378.1,735.5 377.5,726 376.9,719.4C376.1,712.3 374.8,699.8 367.3,699.8C353.4,699.8 351,740.1 351,752.1C351,762 351.4,796.2 364.2,796.2C366.6,796.2 368.7,794.9 370.5,791.9C376.3,782 378.1,762.4 378.1,745ZM582.8,692.9C582.3,692.9 581.6,693.1 581,693.1L579.7,693.1C572.9,692.9 566.1,692.7 559.2,692.7C555.6,692.7 552.2,692.9 548.6,692.9L538.6,692.9C537.6,692.9 536.5,693.1 536.5,695.7C536.5,699.6 538,700 543.3,700L547.1,700C548.4,700 549.8,699.8 551,699.8C555.4,699.8 556.5,700.2 556.5,702.4C556.5,719.2 555.5,728 555.5,774.8C555.5,793.3 555.5,803 556.7,803.9C557.6,804.5 559.4,805 561.2,805C563.4,805 566.4,803.5 567.2,800.5C569,792.1 569.1,749.2 569.1,722.8L569.1,701.9C569.1,700.4 569.2,700.2 570.5,700.2C572.9,700.2 572,700.6 581,700.6C586.4,700.6 588,700.6 588,697.4C587.8,693.8 585.4,692.9 582.8,692.9ZM319.7,719.6C324.1,719.6 326.9,710.6 326.9,704.7C326.9,695 321.2,693.1 314.8,693.1C312.9,693.1 310.9,693.3 309,694C286.1,701.8 277.4,730.6 277.4,757.7C277.4,774.7 278.6,793 290.9,801.4C291,801.4 291.4,801.6 291.5,801.6C293.7,803.8 297.8,804.6 302.3,804.6C306.2,804.6 310.5,803.7 313.1,801.6L313.1,801.8C317.7,798.1 327,790 327,781.3C326.7,778.7 325.9,777.9 324.8,777.9C323.2,777.9 321,779.8 319.7,782.4L319.7,782.6C315.8,790.1 311.8,795.7 303.4,795.7C292.5,795.7 291.7,770.3 291.7,761.5C291.7,739.7 297.4,699.3 316.1,699.3C319.4,699.3 321.9,701 321.9,704.7C321.9,708.8 316.7,710.7 316.7,715.7C316.6,718.3 317.9,719.6 319.7,719.6ZM216.7,795L213.9,795C208.5,795 197.3,795.6 191.9,795.6C189.5,795.6 189.2,794.5 189.2,788.1L189.2,780.6C189.2,768.1 189.8,752.2 190.1,748.5L190.1,748.7C190.4,746.1 191.1,745.7 192.3,745.7C195.1,745.7 195.3,746.3 205.2,746.3C210.1,746.3 214.9,745.7 214.9,743.1L214.9,742C214.8,737.7 214.6,736.6 212.1,736.6C209.9,736.6 203,737.5 191.4,737.5C190.5,737.5 190.3,721.8 190.3,709.1C190.3,701.6 190.5,700.3 191.2,700.3C194,700.3 203,701.4 209.5,701.4C216,701.4 218.6,700.3 218.6,696.4C218.6,693.6 216.4,693 214.2,693C213.5,693 212.7,693.2 212.1,693.2L211,693.2C208.6,693 195.9,692.3 187,692.3C182.1,692.3 178,692.5 177.4,693.4C176.4,695.1 176.1,707 176.1,717.3C176.1,722.3 176.2,727 176.2,730.2L176.2,742.9C176.1,752.4 175.9,766.8 175.9,779.3L175.9,786.6C175.9,799.1 176.2,804.3 178,804.7C180.4,804.9 186.5,804.9 193.4,804.9L202.4,804.9C213.9,804.9 219.6,804.5 219.6,799.3C219.7,797.5 218.9,795.4 216.7,795ZM263.9,795L263.8,795C262.3,795 248.4,795.6 243.7,795.6C242.8,795.6 242.7,795.6 242.7,794.7C242.7,782.4 245.2,705.3 245.2,699.3C245.2,693.9 241.4,692.6 237.7,692.6C230.8,692.6 231,695.6 231,706L231,711C231,720.7 229.6,796.5 229.6,802.3C230.5,804.2 236,804.9 242.8,804.9L251.8,804.9C262.9,804.9 267.4,804.5 267.4,799.3C267.4,797.5 266.5,795.4 263.9,795ZM163.1,673.3C162.5,673.3 162.1,673.5 161.6,673.7C159.4,675 157.4,691.1 156.2,698.7L154.2,710.3C150.3,733.3 143.3,777.3 142.4,777.3C140.6,777.3 138.5,759.6 138.5,759.2C138.1,756.4 130.7,705.1 128.3,703.9L128.3,704.1C127.7,703.7 126.1,703 124.5,703C122.7,703 120.3,703.6 119.9,705.8L120,705.8C118.4,709.9 113.4,738.3 111.8,744.8C111.7,745.7 106.6,774.3 104.9,774.3C104.3,774.3 102.2,750 101.2,744.2C101.2,739.9 91.9,674.6 90.4,672.9C89.8,672.5 88.8,672 87.3,672C82.4,672 78.8,673.5 78.8,682.1C78.8,688.6 80.7,697.6 80.7,700.6L80.7,700.8C80.7,701.4 80.8,702.7 81,703.2C83.1,723.2 91.2,798.6 97.3,804C98.1,804.9 99.2,805.1 100.4,805.1C102.3,805.1 105,802.9 106.1,800.1C107.7,792.1 118.7,745.4 120.9,735.7C121.4,736.1 133.5,802.2 137.1,804.4L137,804.4C137.9,805 138.3,804.8 138.8,804.8C144.8,804.8 145.4,800.1 146.7,794L147.6,789.9C155.7,754.6 160.9,714.5 165.6,677.9C165.7,677.8 165.5,673.3 163.1,673.3ZM934.1,696.1C935,697.4 955.1,799.5 954.9,801C954.8,802.5 951.8,804.9 948.6,804.9C946.2,804.9 944.1,803.6 943.2,800.2C941.1,792.7 935.9,762.1 935,758.6C934.9,758.2 931.7,758 928.1,758C921.7,758 921.5,754.6 916.6,773.9L914.1,783.8C910.8,793.1 911.4,805.1 904.1,805.1C902.3,805.1 900.5,804.5 898.9,803.4L898,802.8C897.5,802.6 897.4,801.7 897.4,800.2C897.4,796.3 900.2,785.8 901.7,779.1L902.7,774.6C907.4,754.4 911.2,741.4 915.5,725.3L920.3,705.7C921.8,699.5 923.1,692.3 928.7,692.3C930.6,692.2 932.1,693.8 934.1,696.1ZM932.6,748.2C932.1,737.2 928.4,719.8 928.7,717.6L928.3,720C926.1,733.6 924.3,743 923.3,747.1L922.5,750.3C922.7,750.5 923.1,750.5 923.9,750.5L930.3,750.5C930.9,750.5 931.5,750.7 932.4,750.7C932.4,750.7 932.4,750.5 932.6,750.5L932.6,748.2ZM634.9,718.9C635.7,727.9 636.4,737.2 636.4,746.5C636.4,761.4 634.7,775.6 630.3,788.5C626.2,800.1 616.2,804.9 610.4,804.9C604.5,804.9 599.4,801.2 595.1,793.3L595.1,792.9C589.9,780.2 588.5,766.2 588.5,752.4C588.5,741.4 590.1,733.7 592.3,724.6L592.7,722.4C595.8,708.6 604.1,692.7 617.4,692.7C628.1,692.7 633.6,704.5 634.9,718.8L634.9,718.9ZM629.5,745C629.5,735.5 628.9,726 628.3,719.4C627.5,712.3 626.2,699.8 618.7,699.8C604.8,699.8 602.4,740.1 602.4,752.1C602.4,762 602.9,796.2 615.6,796.2C618,796.2 620.1,794.9 621.9,791.9C627.7,782 629.5,762.4 629.5,745ZM1014.3,800.6C1014.3,804.5 1012.2,804.7 1010.6,804.7C988.8,804.7 994.8,753.7 983.6,753.7C978.9,753.7 978.4,755.6 978.4,761.5L978.4,768.2C978.4,770.6 978.7,780 978.7,788.7L978.7,791.5C978.7,803.6 978.7,805.1 974.5,805.1C967.8,805.1 965.5,803.4 965.5,798.4L965.5,796.7C965.5,795.8 965.6,795 965.6,794.1L965.6,791.1C965.6,782.3 965.3,755.4 965.3,732.3C965.3,713.8 965.5,697.8 965.8,696.8C967,692.7 984.4,692.7 988.9,692.7C1006.1,693.3 1013.6,710.8 1013.6,724.1C1013.6,735.9 1007.3,747.6 996.4,752.1L996.7,752.3C1002.2,761.8 1008.5,797.5 1012.5,798.2L1012.6,798.2C1013.9,798.2 1014.3,799.5 1014.3,800.6ZM1001.4,723.3C1001.4,711.5 997.2,701.3 982.2,701.3C980.1,701.3 978.2,701.5 978,702.4L978,705.4C978,714 978.4,731.9 978.4,737.9C978.4,740.1 978.3,740.7 978.3,741.8L978.3,743.1C978.3,744.8 978.4,745.5 979.1,745.5C979.4,745.5 980.9,745.1 981.9,744.9L985.1,744.3L985.2,744.3C998.3,742.2 1001.4,735.5 1001.4,723.3ZM1080.2,692.2C1079.3,692.2 1071.3,693.1 1071.3,696.1L1065.9,711C1063.2,719.2 1055.1,744.8 1054.1,744.8C1051.6,744.8 1038.8,694.4 1038.1,693.1C1037.2,692.9 1035.6,692.5 1034.3,692.5C1030.8,692.5 1026.1,693.8 1025.8,697C1025.5,719.2 1025.3,740.5 1025.3,762.7C1025.3,765.9 1024.7,778.2 1024.7,788.5C1024.7,804.9 1025.6,805.1 1030.4,805.1C1037.2,805.1 1037.7,794.8 1037.7,778.8L1037.7,726L1039.8,730.5C1041.8,733.3 1048,763.2 1052.7,763.2C1059,763.2 1063,736.1 1070.2,722.5C1070.4,724.9 1070.4,726.8 1070.4,729C1070.4,754 1069.6,750.5 1069.6,788.4C1069.6,804.1 1069.9,804.8 1075.4,804.8C1082.4,804.8 1082.3,796.2 1082.4,785L1082.9,739.8C1083,727.1 1083.2,714.4 1083.5,701.5C1083.6,694.4 1083.5,692.2 1080.2,692.2ZM888.6,742.4L887.3,742.4C884.9,742.6 879.5,743 870.7,743C869.9,743 869.8,741.5 869.8,736.1C869.8,727.1 870.7,712 870.7,704.2C870.7,702.7 870.7,701.4 870.5,700.8C870.5,700.6 870.7,700.6 871,700.6C871.6,700.6 872.9,700.8 875,700.8L882,700.8C884.7,700.8 887.5,701 890.1,701C897.3,701 899.5,701 899.5,696.5C899.5,695 899,693.7 898.6,693.3L898.4,693.3C897.5,692.9 877.9,692.4 866.3,692.4C861.3,692.4 857.8,692.4 857.5,692.8L857.7,692.8C856.2,694.1 855.9,703.4 855.9,711.3C855.9,715.2 856.1,718.8 856.1,721L856.1,722.9C856.1,732.2 855.6,759.9 855.6,781L855.6,789.2C855.6,804.3 855.8,804.5 859.5,804.5C868.2,804.5 869.5,800.8 869.5,793.1L869.5,788.8C869.5,786.9 869.4,784.7 869.4,782.6L869.4,773.6C869.4,769.7 869.2,765 869.2,760.7C869.2,752.1 869.5,750.4 871.2,750.4C872.2,750.4 874.3,751.3 877.8,751.3C883.8,751.3 890.4,751.1 890.4,746.8C890.4,743.3 890,742.4 888.6,742.4ZM710.9,692.9C710.4,692.9 709.7,693.1 709.1,693.1L707.8,693.1C701,692.9 694.2,692.7 687.3,692.7C683.7,692.7 680.3,692.9 676.7,692.9L666.7,692.9C665.6,692.9 664.6,693.1 664.6,695.7C664.6,699.6 666.1,700 671.4,700L675.2,700C676.5,700 677.9,699.8 679.1,699.8C683.4,699.8 684.6,700.2 684.6,702.4C684.6,719.2 683.6,728 683.6,774.8C683.6,793.3 683.6,803 684.8,803.9C685.7,804.5 687.5,805 689.3,805C691.5,805 694.5,803.5 695.3,800.5C697.1,792.1 697.3,749.2 697.3,722.8L697.3,701.9C697.3,700.4 697.5,700.2 698.6,700.2C701,700.2 700.1,700.6 709.1,700.6C714.5,700.6 716.1,700.6 716.1,697.4C715.9,693.8 713.5,692.9 710.9,692.9ZM773.2,696.3C772.9,693.1 769.9,692.2 767.2,692.2C766.6,692.2 766.2,692.4 765.5,692.4L764.3,692.4C760.5,693 760.1,709.6 760.1,724.5L760.1,739.6C760.1,742.4 760.1,745.2 759.9,746.5C758.1,746.9 741.9,747.4 736.2,747.4C734.8,747.4 734.4,747 734.4,744.2C734.4,735.2 735.6,718.1 735.6,702.2C735.6,694.7 735.5,692.3 730.1,692.3C728.3,692.3 726.2,692.7 725.3,693.4L725.6,693.4L725.2,693.8C723.8,693.8 722.8,720.3 721.9,741L721.3,754.8C720.5,769.9 720.4,785.6 719.8,799.6C719.8,803.9 723.8,805 727.6,805C733.1,805 733.1,801.3 733.1,792.1L733.1,774.2C733.1,756.5 734,755.5 747.3,755.5L754.8,755.5C756.2,755.5 757,755.3 758,755.3L759.5,755.3C760.3,755.3 760.5,755.5 760.5,757.5C760.5,762.7 760,778.2 760,788.9C760,802.9 760.2,805.3 765.5,805.3C767,805.3 768.3,804.9 769.5,804.4C771.3,803.8 771.7,766.7 771.7,763.1C771.7,746.7 773.5,729.1 773.5,712.9C773.5,707.3 773.3,702.1 772.9,696.7L772.9,696.3L773.2,696.3ZM824.6,795L821.7,795C816.3,795 805.1,795.6 799.7,795.6C797.3,795.6 797,794.5 797,788.1L797,780.6C797,768.1 797.6,752.2 797.9,748.5L797.9,748.7C798.2,746.1 798.9,745.7 800.1,745.7C802.9,745.7 803.1,746.3 813,746.3C818,746.3 822.8,745.7 822.8,743.1L822.8,742C822.6,737.7 822.5,736.6 819.9,736.6C817.7,736.6 810.8,737.5 799.2,737.5C798.3,737.5 798.2,721.8 798.2,709.1C798.2,701.6 798.4,700.3 799.1,700.3C801.9,700.3 810.9,701.4 817.4,701.4C823.9,701.4 826.5,700.3 826.5,696.4C826.5,693.6 824.3,693 822.2,693C821.4,693 820.7,693.2 820.1,693.2L818.9,693.2C816.5,693 803.8,692.3 794.9,692.3C790,692.3 785.9,692.5 785.3,693.4C784.3,695.1 784,707 784,717.3C784,722.3 784.1,727 784.1,730.2L784.1,742.9C784,752.4 783.8,766.8 783.8,779.3L783.8,786.6C783.8,799.1 784.1,804.3 785.9,804.7C788.3,804.9 794.4,804.9 801.3,804.9L810.3,804.9C821.8,804.9 827.5,804.5 827.5,799.3C827.6,797.5 826.9,795.4 824.6,795Z" style="fill-rule:nonzero;"/>
            <path id="path4" d="M716.1,156.5L680.9,165.199L684.1,204.5C680,205.2 676,206.401 672.1,207.801L651,163.199L625,188.6L648,222.1C644.7,224.9 641.7,228.001 638.9,231.301L597.801,203.199L588.199,238.301L624.9,255.5C623.5,259.3 622.499,263.1 621.699,267.1C621.699,267.3 621.6,267.499 621.6,267.699L572.301,263.699L581.4,298.9L621.699,295.6C622.499,299.7 623.7,303.6 625.1,307.5L589.1,324.5L553.5,264.301L377.9,170.6L202.301,264.301L106.301,426.6L138.9,426.6L138.9,666.199L118.199,666.199C118.099,666.099 118,666 117.9,665.6C117.6,664.7 116.199,656.699 116.199,656.699C116.199,656.699 121.301,654.401 123.301,650.801C125.401,647.201 124.699,644.4 124.699,644.4C124.699,644.4 125.401,644.099 125.801,643.699C126.101,643.299 126.199,642.999 126.199,642.699C126.199,642.399 125.9,641.9 125.9,641.9C125.9,641.9 127.1,641.1 127.4,641C127.6,640.9 127.8,640.699 127.6,639.699C127.5,638.799 126.801,637.1 126.801,637.1C126.801,637.1 127.6,637 128.4,636.5C129.2,636 128.6,634.6 128.5,634C128.4,633.4 129.1,633.1 129.1,633.1C129.1,633.1 130,632.4 130,632C130,631.7 130.5,631.5 131.4,630.9C132.4,630.3 133.4,629.099 133.4,628.699C133.4,628.299 132.501,627.999 132.801,627.699C133.101,627.299 133.9,626.3 134,626C134.1,625.7 133.4,626.1 133,625.9C132.5,625.8 131.801,625.699 131.801,625.699C131.801,625.699 132.3,625.499 133,624.699C133.7,623.899 134.299,622.6 134.199,622.5C134.199,622.4 133.5,622.4 133.5,622.4C133.5,622.4 134.7,620.701 134.6,620.301C134.5,619.901 133.199,618.5 133.199,618.5C133.599,618.3 133.6,618.1 133.6,618.1C133.6,618.1 132.5,616.6 129.5,616.5C126.5,616.4 123.799,620.1 121.699,622C119.499,623.9 116.7,625.901 113.4,625.801C110.1,625.801 105.401,626.899 99.801,626.699C94.201,626.499 91,618 89,614.9C87,611.8 83.4,611.9 83.4,611.9C83.4,611.9 83.899,611.7 84.199,611.5C84.499,611.3 84.599,611.2 84.699,611.1C84.799,611 85.299,610.6 85.699,610.4C86.099,610.2 85.8,610.101 85.5,609.801C85.2,609.501 85.2,609.401 85.1,608.801C85.1,608.201 84.7,608.301 84.6,608.301C84.5,608.301 84.2,607.6 84,607.4C83.8,607.2 83.8,607.701 83.5,607.801C83.2,607.901 83.101,608 82.801,608.1C82.501,608.2 82.399,606.6 82.199,606.5C81.999,606.5 81.499,608.1 81.199,608.4C80.899,608.7 80.501,606.301 80.301,606.301C80.101,606.201 79.7,608.499 79.5,608.699C79.3,608.899 78.7,606.901 78.4,606.801C78.1,606.701 77.801,609 77.801,609.4C77.801,609.8 76.6,608.1 76.4,608.1C76.2,608.1 76.299,608.8 76.199,609.4C76.099,610 76.5,610.3 76.5,610.6C76.5,611 75.399,610 75.199,609.9C74.999,609.8 75,611.301 75,611.301L74.801,611.301C74.601,611.401 74.6,611.401 74.6,611.801C74.7,612.101 74.301,612.9 74.301,614C74.401,615.1 75.199,615.699 75.199,615.699L75.4,615.9C73.8,617.3 74.5,618.199 74.5,618.199C74.5,618.199 75.3,618.099 76.1,617.699C76.9,617.299 77.4,617.4 77.4,617.4C77.4,617.4 76.8,618.6 77.4,620.4C78,622.2 79.699,622.9 79.699,622.9C78.899,624.1 78.2,627.399 78.6,630.199C79,632.999 83.2,642.1 84,643.5C84.8,644.9 87.4,648 89,649C90.6,650 94.6,651.9 95.1,652.4C95.6,652.9 95.9,654 96.1,655C96.3,656 97,656.6 97,656.5C97,656.4 97.5,657.899 98,658.699C98.5,659.499 100.199,660.1 100.199,660.5C100.199,660.8 96.999,665.199 96.699,665.699L96.1,666.301L66.4,666.301L66.4,693L430.9,693C431.6,693.4 432.399,693.6 433.199,693.6C433.999,693.6 434.8,693.4 435.5,693L477.801,693C478.801,693.8 479.9,694.301 481.1,694.301C482.3,694.301 483.4,693.8 484.4,693L1106.7,693L1106.7,666.301L1106.7,664.801L998.289,665.354C995.371,662.211 993.914,657.806 993.535,653.607C993.421,647.196 993.81,640.758 995.396,634.531C996.708,626.341 996.459,617.934 998.752,609.904C999.876,603.378 1000.98,596.793 1002.77,590.426C1004.73,586.794 1009.48,585.481 1011.83,581.957C1014.64,578.181 1014.91,573.162 1017.6,569.285C1018.94,564.302 1019.2,559.079 1019.87,553.965C1025.31,548.823 1028.24,541.802 1031.92,535.426C1034.92,529.718 1037.64,523.835 1039.51,517.65C1041.7,518.699 1044.4,518.161 1045.82,520.516C1049,524.167 1055.15,524.464 1057.32,528.852C1058.26,534.363 1064.45,533.106 1068.12,531.395C1071.18,528.39 1074.21,523.697 1073.11,519.271C1071.11,515.317 1068.93,511.448 1067.39,507.285C1064.62,503.018 1063.87,498.02 1063.21,493.092C1065,491.649 1063.06,487.607 1063.55,486.014C1062.94,484.663 1065.56,486.243 1063.34,484.5C1067.35,486.69 1060.47,482.509 1064.82,483.91C1062.55,483.181 1063.33,482.745 1062.81,482.172C1065.7,482.582 1057.09,478.67 1061.32,479.105C1058.66,478.517 1062.95,479.199 1059.49,477.814C1056.88,475.845 1055.48,473.839 1058.04,471.344C1058.45,468.056 1058.63,463.457 1055.93,461.111C1052.89,461.843 1053.13,468.553 1049.8,468.033C1047.41,466.458 1043.49,467.812 1042.4,469.34C1039.86,467.141 1044.4,459.841 1039.31,462.92C1035.14,464.889 1036.56,471.922 1032.59,472.664C1027.75,473.08 1023.69,475.706 1020.34,479.113C1015.96,481.034 1012.74,484.706 1008.78,487.34C1006.63,487.839 1004.38,488.296 1003.05,490.232C1000.5,493.805 996.454,495.303 993.664,498.639C990.617,501.93 985.741,502.943 983.148,506.818C979.862,509.731 974.568,509.047 971.855,512.875C967.857,515.811 964.846,519.964 960.107,521.795C949.657,529.125 936.178,528.665 924.082,527.219C915.259,525.985 906.414,524.387 897.902,521.758C893.076,520.005 887.876,518.984 882.746,518.48C878.232,518.056 873.694,518.554 869.682,520.789C863.284,523.429 856.73,525.698 850.746,529.232C845.958,530.895 841.282,533.149 837.143,536.088C828.515,543.336 827.23,555.401 826.131,565.893C825.601,574.608 824.397,583.293 824.244,592.021C824.283,604.026 825.032,616.206 824.33,628.084C823.344,635.755 821.4,643.387 820.938,651.068C822.353,649.08 823.668,647.006 825.045,644.984C825.697,646.476 824.056,650.876 826.572,647.254C828.853,641.971 825.4,652.304 828.156,648.176C831.372,643.498 833.139,637.913 836.549,633.416C841.301,629.921 839.916,639.606 839.832,642.367C839.118,648.383 839.169,654.516 837.955,660.43C837.084,662.119 836.76,664.318 837.135,666.178L774,666.5C774,666.5 744,496.001 729,410.801C725.7,392.501 722.501,374.2 719.301,355.9C721.101,355.4 722.8,354.8 724.6,354.1L745.9,399.301L771.9,373.9L748.4,339.699C751.6,336.899 754.6,333.9 757.4,330.6L798.9,359L808.5,323.9L771.5,306.5C772.9,302.7 773.8,298.9 774.5,295L824.199,299L815.199,263.801L774.301,267.1C773.501,263 772.4,258.999 771,255.199L816.199,233.9L790.9,207.801L757,231.1C754.2,227.8 751.2,224.8 747.9,222L776,180.699L741,171L723.6,208.1C720,206.8 716.099,205.7 712.199,204.9L716.1,156.5ZM711.301,217.301C713.701,217.801 716.1,218.399 718.5,219.199L709.6,238.199L711.301,217.301ZM685.199,217.6L686.9,239.199L677.699,219.699C680.099,218.799 682.599,218.1 685.199,217.6ZM740.9,232.301C742.9,234.101 744.899,236.099 746.699,238.199L728.1,251L740.9,232.301ZM655.199,232.699L668.1,251.4L649.301,238.5C651.201,236.4 653.199,234.399 655.199,232.699ZM759.6,260.6C760.4,263.1 761.099,265.6 761.699,268.1L740.1,269.801L759.6,260.6ZM636.199,260.801L656.9,270.5L634.199,268.699C634.699,265.999 635.399,263.401 636.199,260.801ZM741.5,292.301L761.801,293.9C761.301,296.3 760.7,298.6 759.9,300.9L741.5,292.301ZM656.5,292.9L637,302.199C636.1,299.699 635.401,297.199 634.801,294.699L656.5,292.9ZM728.699,310.699L747.199,323.4C745.399,325.4 743.5,327.401 741.5,329.301L728.699,310.699ZM668.699,311.5L655.9,330.301C653.8,328.501 651.8,326.5 650,324.4L668.699,311.5ZM687.9,322.801L686.1,345.199C683.4,344.699 680.801,343.999 678.301,343.199L687.9,322.801ZM710,322.801L719.301,342.4C716.801,343.2 714.401,343.9 711.801,344.5L710,322.801ZM639.6,331.5C642.4,334.8 645.501,337.8 648.801,340.6L622,379.801L606.801,354.1L639.6,331.5ZM332.199,337.6L420.4,337.6L420.4,425.801L332.199,425.801L332.199,337.6ZM673.1,354.5C674.4,355 675.799,355.5 677.199,355.9C677.799,356 678.301,356.201 678.801,356.301C663.301,444.201 647.9,532.1 632.4,620C629.6,635.4 626.899,650.901 624.199,666.301L617.199,666.301L617.199,426.6L649.801,426.6L623.9,382.801L655.801,391.4L673.1,354.5ZM714.301,399.4C715.501,406.2 716.7,413.1 717.9,419.9C712.7,414.1 707.399,408.4 702.199,402.6L714.301,399.4ZM688.5,406.301C697,415.601 705.501,425.001 713.801,434.301L677.6,434.301C678.8,427.501 679.999,420.8 681.199,414C681.599,412 681.901,410 682.301,408L688.5,406.301ZM675.5,448.199L722.9,448.199C726.4,468.199 729.9,488.1 733.4,508.1C714.1,488.1 694.8,468.199 675.5,448.199ZM672.6,463.4C691.3,482.7 709.999,502.1 728.699,521.4L662.4,521.4C665.8,502.1 669.2,482.7 672.6,463.4ZM1056.28,474.689C1057.64,475.909 1057.19,476.472 1056.28,474.689ZM1061.4,480.648C1063.28,481.638 1060.97,481.033 1061.4,480.648ZM1061.73,481.338C1062.81,481.741 1062.61,482.236 1061.73,481.338ZM1061.49,481.76C1062.28,482.052 1061.5,482.392 1061.49,481.76ZM1061.97,483.332C1062.82,483.755 1062.44,484.25 1061.97,483.332ZM1062.92,484.133C1063.42,484.491 1062.42,484.488 1062.92,484.133ZM1062.38,484.83C1063.53,484.791 1063.15,486.152 1062.38,484.83ZM303.1,499L454.801,499L375.5,592.199L303.1,499ZM298.1,523.199L361.4,604.699L313.301,661.199C312.201,662.499 311.299,664.3 310.699,666.4L298.1,666.4L298.1,523.199ZM454.801,528.6L454.801,666.301L436.199,666.301L389.1,605.699L454.801,528.6ZM670.5,533.6L737.9,533.6L752,613.699C724.8,586.999 697.7,560.3 670.5,533.6ZM659.1,540.1C688.1,568.6 717.1,597.3 746.1,625.9L644,625.9C649,597.3 654.1,568.7 659.1,540.1ZM844.906,579.283C846.991,583.117 846.999,587.868 847.738,592.148C848.876,597.147 846.888,601.898 844.828,606.344C844.283,608.36 840.386,616.81 842.066,610.352C842.484,600.02 841.941,589.343 844.906,579.283ZM825.088,585.879C825.313,586.696 824.938,586.339 825.088,585.879ZM896.521,589.9C900.599,590.147 904.576,595.573 909.402,596.092C913.564,597.459 917.529,599.474 921.941,599.99C929.903,601.624 938.161,600.61 946.121,599.492C951.133,598.944 955.998,598.163 960.895,596.875C965.325,596.696 970.238,594.433 974.396,596.148C975.507,604.142 975.253,612.266 975.582,620.322C976.814,624.386 974.837,628.776 975.953,632.596C979.026,638.331 976.605,644.904 975.914,650.934C975.817,655.032 974.193,659.906 973.92,663.107C973.993,663.77 973.851,664.611 973.713,665.48L896.35,665.875C895.408,664.343 894.734,662.735 894.99,660.916C894.091,655.524 889.526,651.601 887.143,646.791C883.685,641.387 880.478,635.78 878.359,629.711C880.272,625.695 880.256,621.201 882.309,617.186C884.291,612.989 886.593,609.087 888.502,604.971C890.557,599.611 894.454,595.254 896.521,589.9ZM868.328,597.434C868.523,597.403 868.707,597.466 868.879,597.648C869.868,605.79 865.349,613.068 861.217,619.67C857.89,624.564 862.323,628.805 865.066,632.566C870.361,640.708 875.619,648.919 880.26,657.441C880.143,659.974 880.933,660.504 881.258,662.689C881.468,663.892 881.293,664.779 881.967,665.949L850.264,666.111C850.244,666.038 850.217,665.969 850.199,665.895C847.522,656.464 849.214,646.487 850.758,636.994C853.061,632.532 853.698,627.565 855.098,622.857C856.603,619.331 859.798,611.614 860.68,611.051C860.713,612.332 863.182,605.628 864.127,603.818C865.146,602.501 866.967,597.649 868.328,597.434ZM375,622.199L409.301,666.301L337.4,666.301L375,622.199ZM641.9,638.1L756.301,638.1C758.001,647.5 759.601,656.901 761.301,666.301L636.9,666.301C638.6,656.901 640.2,647.5 641.9,638.1ZM107.113,657.193C107.62,657.25 108.351,657.474 108.801,657.699C109.401,657.999 110.6,658.5 111.6,659.1C112.7,659.7 114.601,659.4 114.801,659.5C115.001,659.6 115.699,664.5 115.699,665.1C115.699,665.4 115.801,665.801 115.801,666.301L99.301,666.301C99.301,666.101 99.4,665.8 99.6,665.6C100.1,664.6 103.699,659.699 103.699,659.699C103.699,659.699 103.799,659.701 104.199,659.301C104.599,658.901 106.299,657.299 106.699,657.199C106.799,657.174 106.945,657.175 107.113,657.193ZM66.4,804.301L66.4,831L1106.6,831L1106.6,804.301L66.4,804.301Z" style="fill-rule:nonzero;"/>
        </g>
    </g>
</svg>
